<svg width="50" height="50" viewBox="0 0 50 50" fill="none" xmlns="http://www.w3.org/2000/svg">
<path d="M10.4166 37.5H6.24998C5.14491 37.5 4.0851 37.061 3.3037 36.2796C2.5223 35.4982 2.08331 34.4384 2.08331 33.3333V16.6667C2.08331 15.5616 2.5223 14.5018 3.3037 13.7204C4.0851 12.939 5.14491 12.5 6.24998 12.5H12.8958M31.25 12.5H35.4166C36.5217 12.5 37.5815 12.939 38.3629 13.7204C39.1443 14.5018 39.5833 15.5616 39.5833 16.6667V33.3333C39.5833 34.4384 39.1443 35.4982 38.3629 36.2796C37.5815 37.061 36.5217 37.5 35.4166 37.5H28.7708" stroke="#9897AD" stroke-width="3" stroke-linecap="round" stroke-linejoin="round"/>
<path d="M47.9167 27.0833V22.9166" stroke="#9897AD" stroke-width="3" stroke-linecap="round" stroke-linejoin="round"/>
<path d="M22.9166 12.5L14.5833 25H27.0833L18.75 37.5" stroke="#9897AD" stroke-width="2" stroke-linecap="round" stroke-linejoin="round"/>
</svg>
